<mxfile host="app.diagrams.net" modified="2021-04-06T12:27:20.322Z" agent="5.0 (Windows NT 10.0; Win64; x64) AppleWebKit/537.36 (KHTML, like Gecko) Chrome/89.0.4389.114 Safari/537.36" etag="M5DPGCEcZkz-X4ExACDr" version="14.5.7" type="github">
  <diagram id="C5RBs43oDa-KdzZeNtuy" name="Page-1">
    <mxGraphModel dx="1273" dy="680" grid="1" gridSize="10" guides="1" tooltips="1" connect="1" arrows="1" fold="1" page="1" pageScale="1" pageWidth="827" pageHeight="1169" math="0" shadow="0">
      <root>
        <mxCell id="WIyWlLk6GJQsqaUBKTNV-0" />
        <mxCell id="WIyWlLk6GJQsqaUBKTNV-1" parent="WIyWlLk6GJQsqaUBKTNV-0" />
        <mxCell id="NYdqGpCn-FA6ziH9bo_J-0" value="State" style="swimlane;fontStyle=1;align=center;verticalAlign=top;childLayout=stackLayout;horizontal=1;startSize=26;horizontalStack=0;resizeParent=1;resizeParentMax=0;resizeLast=0;collapsible=1;marginBottom=0;" vertex="1" parent="WIyWlLk6GJQsqaUBKTNV-1">
          <mxGeometry x="100" y="558" width="270" height="210" as="geometry" />
        </mxCell>
        <mxCell id="NYdqGpCn-FA6ziH9bo_J-1" value="protected FiniteStateMachine stateMachine;&#xa;protected Entity entity;&#xa;protected float startTime;&#xa;protected string animBoolName;&#xa;" style="text;strokeColor=none;fillColor=none;align=left;verticalAlign=top;spacingLeft=4;spacingRight=4;overflow=hidden;rotatable=0;points=[[0,0.5],[1,0.5]];portConstraint=eastwest;" vertex="1" parent="NYdqGpCn-FA6ziH9bo_J-0">
          <mxGeometry y="26" width="270" height="74" as="geometry" />
        </mxCell>
        <mxCell id="NYdqGpCn-FA6ziH9bo_J-2" value="" style="line;strokeWidth=1;fillColor=none;align=left;verticalAlign=middle;spacingTop=-1;spacingLeft=3;spacingRight=3;rotatable=0;labelPosition=right;points=[];portConstraint=eastwest;" vertex="1" parent="NYdqGpCn-FA6ziH9bo_J-0">
          <mxGeometry y="100" width="270" height="8" as="geometry" />
        </mxCell>
        <mxCell id="NYdqGpCn-FA6ziH9bo_J-3" value="State(Entity, FiniteStateMachine, string)&#xa;enter(): virtual void&#xa;exit(): virtual void&#xa;logicUpdate(): virtual void&#xa;physicUpdate(): virtual void" style="text;strokeColor=none;fillColor=none;align=left;verticalAlign=top;spacingLeft=4;spacingRight=4;overflow=hidden;rotatable=0;points=[[0,0.5],[1,0.5]];portConstraint=eastwest;" vertex="1" parent="NYdqGpCn-FA6ziH9bo_J-0">
          <mxGeometry y="108" width="270" height="102" as="geometry" />
        </mxCell>
        <mxCell id="NYdqGpCn-FA6ziH9bo_J-35" style="edgeStyle=orthogonalEdgeStyle;rounded=0;orthogonalLoop=1;jettySize=auto;html=1;" edge="1" parent="WIyWlLk6GJQsqaUBKTNV-1" source="NYdqGpCn-FA6ziH9bo_J-4" target="NYdqGpCn-FA6ziH9bo_J-17">
          <mxGeometry relative="1" as="geometry" />
        </mxCell>
        <mxCell id="NYdqGpCn-FA6ziH9bo_J-4" value="Entity" style="swimlane;fontStyle=1;align=center;verticalAlign=top;childLayout=stackLayout;horizontal=1;startSize=26;horizontalStack=0;resizeParent=1;resizeParentMax=0;resizeLast=0;collapsible=1;marginBottom=0;" vertex="1" parent="WIyWlLk6GJQsqaUBKTNV-1">
          <mxGeometry x="790" y="550" width="350" height="280" as="geometry" />
        </mxCell>
        <mxCell id="NYdqGpCn-FA6ziH9bo_J-5" value="    public FiniteStateMachine stateMachine;&#xa;    public D_Entity entityData;&#xa;    public int facingDirection { get; private set; }&#xa;    public Rigidbody2D rb { get; private set;}&#xa;    public Animator anim { get; private set; }&#xa;    public GameObject aliveGO { get; private set; }&#xa;    private Transform wallCheck;&#xa;    private Transform ledgeCheck;&#xa;    private Vector2 velocityWorkSpace;" style="text;strokeColor=none;fillColor=none;align=left;verticalAlign=top;spacingLeft=4;spacingRight=4;overflow=hidden;rotatable=0;points=[[0,0.5],[1,0.5]];portConstraint=eastwest;" vertex="1" parent="NYdqGpCn-FA6ziH9bo_J-4">
          <mxGeometry y="26" width="350" height="144" as="geometry" />
        </mxCell>
        <mxCell id="NYdqGpCn-FA6ziH9bo_J-6" value="" style="line;strokeWidth=1;fillColor=none;align=left;verticalAlign=middle;spacingTop=-1;spacingLeft=3;spacingRight=3;rotatable=0;labelPosition=right;points=[];portConstraint=eastwest;" vertex="1" parent="NYdqGpCn-FA6ziH9bo_J-4">
          <mxGeometry y="170" width="350" height="8" as="geometry" />
        </mxCell>
        <mxCell id="NYdqGpCn-FA6ziH9bo_J-7" value="Start(): public virtual void&#xa;Update(): public virtual void&#xa;FixedUpdate(): public virtual void&#xa;setVelocity(float velocity): public virtual void&#xa;checkWall()&#xa;Flip()" style="text;strokeColor=none;fillColor=none;align=left;verticalAlign=top;spacingLeft=4;spacingRight=4;overflow=hidden;rotatable=0;points=[[0,0.5],[1,0.5]];portConstraint=eastwest;" vertex="1" parent="NYdqGpCn-FA6ziH9bo_J-4">
          <mxGeometry y="178" width="350" height="102" as="geometry" />
        </mxCell>
        <mxCell id="NYdqGpCn-FA6ziH9bo_J-16" value="FiniteStateMachine" style="swimlane;fontStyle=1;align=center;verticalAlign=top;childLayout=stackLayout;horizontal=1;startSize=26;horizontalStack=0;resizeParent=1;resizeParentMax=0;resizeLast=0;collapsible=1;marginBottom=0;" vertex="1" parent="WIyWlLk6GJQsqaUBKTNV-1">
          <mxGeometry x="460" y="690" width="280" height="120" as="geometry" />
        </mxCell>
        <mxCell id="NYdqGpCn-FA6ziH9bo_J-17" value="public State curState { get; private set;}" style="text;strokeColor=none;fillColor=none;align=left;verticalAlign=top;spacingLeft=4;spacingRight=4;overflow=hidden;rotatable=0;points=[[0,0.5],[1,0.5]];portConstraint=eastwest;" vertex="1" parent="NYdqGpCn-FA6ziH9bo_J-16">
          <mxGeometry y="26" width="280" height="26" as="geometry" />
        </mxCell>
        <mxCell id="NYdqGpCn-FA6ziH9bo_J-18" value="" style="line;strokeWidth=1;fillColor=none;align=left;verticalAlign=middle;spacingTop=-1;spacingLeft=3;spacingRight=3;rotatable=0;labelPosition=right;points=[];portConstraint=eastwest;" vertex="1" parent="NYdqGpCn-FA6ziH9bo_J-16">
          <mxGeometry y="52" width="280" height="8" as="geometry" />
        </mxCell>
        <mxCell id="NYdqGpCn-FA6ziH9bo_J-19" value="init(State startingState)&#xa;changeState(State newState)" style="text;strokeColor=none;fillColor=none;align=left;verticalAlign=top;spacingLeft=4;spacingRight=4;overflow=hidden;rotatable=0;points=[[0,0.5],[1,0.5]];portConstraint=eastwest;" vertex="1" parent="NYdqGpCn-FA6ziH9bo_J-16">
          <mxGeometry y="60" width="280" height="60" as="geometry" />
        </mxCell>
        <mxCell id="NYdqGpCn-FA6ziH9bo_J-20" value="MoveState" style="swimlane;fontStyle=1;align=center;verticalAlign=top;childLayout=stackLayout;horizontal=1;startSize=26;horizontalStack=0;resizeParent=1;resizeParentMax=0;resizeLast=0;collapsible=1;marginBottom=0;" vertex="1" parent="WIyWlLk6GJQsqaUBKTNV-1">
          <mxGeometry x="-140" y="880" width="230" height="160" as="geometry" />
        </mxCell>
        <mxCell id="NYdqGpCn-FA6ziH9bo_J-21" value="    protected D_MoveState stateData;&#xa;    protected bool isDetectingWall;&#xa;    protected bool isDetectingLedge;" style="text;strokeColor=none;fillColor=none;align=left;verticalAlign=top;spacingLeft=4;spacingRight=4;overflow=hidden;rotatable=0;points=[[0,0.5],[1,0.5]];portConstraint=eastwest;" vertex="1" parent="NYdqGpCn-FA6ziH9bo_J-20">
          <mxGeometry y="26" width="230" height="54" as="geometry" />
        </mxCell>
        <mxCell id="NYdqGpCn-FA6ziH9bo_J-22" value="" style="line;strokeWidth=1;fillColor=none;align=left;verticalAlign=middle;spacingTop=-1;spacingLeft=3;spacingRight=3;rotatable=0;labelPosition=right;points=[];portConstraint=eastwest;" vertex="1" parent="NYdqGpCn-FA6ziH9bo_J-20">
          <mxGeometry y="80" width="230" height="8" as="geometry" />
        </mxCell>
        <mxCell id="NYdqGpCn-FA6ziH9bo_J-23" value="+ method(type): type" style="text;strokeColor=none;fillColor=none;align=left;verticalAlign=top;spacingLeft=4;spacingRight=4;overflow=hidden;rotatable=0;points=[[0,0.5],[1,0.5]];portConstraint=eastwest;" vertex="1" parent="NYdqGpCn-FA6ziH9bo_J-20">
          <mxGeometry y="88" width="230" height="72" as="geometry" />
        </mxCell>
        <mxCell id="NYdqGpCn-FA6ziH9bo_J-24" value="Extends" style="endArrow=block;endSize=16;endFill=0;html=1;exitX=0.5;exitY=0;exitDx=0;exitDy=0;entryX=0.415;entryY=1.049;entryDx=0;entryDy=0;entryPerimeter=0;" edge="1" parent="WIyWlLk6GJQsqaUBKTNV-1" source="NYdqGpCn-FA6ziH9bo_J-20" target="NYdqGpCn-FA6ziH9bo_J-3">
          <mxGeometry width="160" relative="1" as="geometry">
            <mxPoint x="120" y="790" as="sourcePoint" />
            <mxPoint x="280" y="790" as="targetPoint" />
          </mxGeometry>
        </mxCell>
        <mxCell id="NYdqGpCn-FA6ziH9bo_J-25" value="IdleState" style="swimlane;fontStyle=1;align=center;verticalAlign=top;childLayout=stackLayout;horizontal=1;startSize=26;horizontalStack=0;resizeParent=1;resizeParentMax=0;resizeLast=0;collapsible=1;marginBottom=0;" vertex="1" parent="WIyWlLk6GJQsqaUBKTNV-1">
          <mxGeometry x="200" y="900" width="330" height="160" as="geometry" />
        </mxCell>
        <mxCell id="NYdqGpCn-FA6ziH9bo_J-26" value="    protected D_IdleState stateData;&#xa;&#xa;    protected bool flipAfterIdle;&#xa;    protected bool isIdleTimeOver;&#xa;&#xa;    protected float idleTime;" style="text;strokeColor=none;fillColor=none;align=left;verticalAlign=top;spacingLeft=4;spacingRight=4;overflow=hidden;rotatable=0;points=[[0,0.5],[1,0.5]];portConstraint=eastwest;" vertex="1" parent="NYdqGpCn-FA6ziH9bo_J-25">
          <mxGeometry y="26" width="330" height="94" as="geometry" />
        </mxCell>
        <mxCell id="NYdqGpCn-FA6ziH9bo_J-27" value="" style="line;strokeWidth=1;fillColor=none;align=left;verticalAlign=middle;spacingTop=-1;spacingLeft=3;spacingRight=3;rotatable=0;labelPosition=right;points=[];portConstraint=eastwest;" vertex="1" parent="NYdqGpCn-FA6ziH9bo_J-25">
          <mxGeometry y="120" width="330" height="8" as="geometry" />
        </mxCell>
        <mxCell id="NYdqGpCn-FA6ziH9bo_J-28" value="+ method(type): type" style="text;strokeColor=none;fillColor=none;align=left;verticalAlign=top;spacingLeft=4;spacingRight=4;overflow=hidden;rotatable=0;points=[[0,0.5],[1,0.5]];portConstraint=eastwest;" vertex="1" parent="NYdqGpCn-FA6ziH9bo_J-25">
          <mxGeometry y="128" width="330" height="32" as="geometry" />
        </mxCell>
        <mxCell id="NYdqGpCn-FA6ziH9bo_J-32" value="Extends" style="endArrow=block;endSize=16;endFill=0;html=1;exitX=0.48;exitY=-0.007;exitDx=0;exitDy=0;exitPerimeter=0;" edge="1" parent="WIyWlLk6GJQsqaUBKTNV-1" source="NYdqGpCn-FA6ziH9bo_J-25">
          <mxGeometry width="160" relative="1" as="geometry">
            <mxPoint x="300" y="790" as="sourcePoint" />
            <mxPoint x="210" y="770" as="targetPoint" />
          </mxGeometry>
        </mxCell>
        <mxCell id="NYdqGpCn-FA6ziH9bo_J-33" style="edgeStyle=orthogonalEdgeStyle;rounded=0;orthogonalLoop=1;jettySize=auto;html=1;exitX=1;exitY=0.5;exitDx=0;exitDy=0;entryX=0.001;entryY=0.309;entryDx=0;entryDy=0;entryPerimeter=0;" edge="1" parent="WIyWlLk6GJQsqaUBKTNV-1" source="NYdqGpCn-FA6ziH9bo_J-1" target="NYdqGpCn-FA6ziH9bo_J-5">
          <mxGeometry relative="1" as="geometry" />
        </mxCell>
        <mxCell id="NYdqGpCn-FA6ziH9bo_J-38" value="" style="endArrow=classic;startArrow=classic;html=1;exitX=1;exitY=0.5;exitDx=0;exitDy=0;entryX=0;entryY=0.5;entryDx=0;entryDy=0;" edge="1" parent="WIyWlLk6GJQsqaUBKTNV-1" source="NYdqGpCn-FA6ziH9bo_J-1" target="NYdqGpCn-FA6ziH9bo_J-17">
          <mxGeometry width="50" height="50" relative="1" as="geometry">
            <mxPoint x="400" y="710" as="sourcePoint" />
            <mxPoint x="450" y="660" as="targetPoint" />
            <Array as="points">
              <mxPoint x="420" y="680" />
            </Array>
          </mxGeometry>
        </mxCell>
      </root>
    </mxGraphModel>
  </diagram>
</mxfile>
